<?xml version="1.0" standalone="no"?>
<!DOCTYPE svg PUBLIC "-//W3C//DTD SVG 20010904//EN"
 "http://www.w3.org/TR/2001/REC-SVG-20010904/DTD/svg10.dtd">
<svg version="1.0" xmlns="http://www.w3.org/2000/svg"
 width="96.000000pt" height="96.000000pt" viewBox="0 0 96.000000 96.000000"
 preserveAspectRatio="xMidYMid meet">
<metadata>
Created by potrace 1.14, written by Peter Selinger 2001-2017
</metadata>
<g transform="translate(0.000000,96.000000) scale(0.100000,-0.100000)"
fill="#000000" stroke="none">
<path d="M387 874 c-127 -40 -216 -117 -276 -238 -22 -45 -44 -104 -49 -131
-33 -191 75 -401 229 -445 102 -30 285 -15 380 29 132 62 215 195 226 358 5
73 3 91 -22 158 -15 41 -31 75 -35 75 -5 0 -11 8 -14 18 -12 35 -111 123 -176
155 -53 26 -78 32 -140 34 -46 2 -94 -3 -123 -13z"/>
</g>
</svg>
